<svg width="28" height="28" viewBox="0 0 28 28" fill="none" xmlns="http://www.w3.org/2000/svg">
<path d="M23.9987 13.9997C23.9987 11.3475 22.9455 8.80364 21.0701 6.92828C19.1947 5.05291 16.6509 3.99967 13.9987 3.99967C11.3465 3.99967 8.80267 5.05291 6.9273 6.92828C5.05194 8.80364 3.9987 11.3475 3.9987 13.9997C3.9987 16.6518 5.05194 19.1957 6.9273 21.0711C8.80267 22.9464 11.3465 23.9997 13.9987 23.9997C16.6509 23.9997 19.1947 22.9464 21.0701 21.0711C22.9455 19.1957 23.9987 16.6518 23.9987 13.9997ZM14.832 7.33301V13.6546L19.5879 18.4105L18.4095 19.5889L13.1654 14.3447V7.33301H14.832ZM25.6654 13.9997C25.6654 17.0939 24.4364 20.0615 22.2485 22.2495C20.0606 24.4374 17.0929 25.6663 13.9987 25.6663C10.9045 25.6663 7.93684 24.4374 5.74892 22.2495C3.56099 20.0615 2.33203 17.0939 2.33203 13.9997C2.33203 10.9055 3.56099 7.93782 5.74892 5.74989C7.93684 3.56197 10.9045 2.33301 13.9987 2.33301C17.0929 2.33301 20.0606 3.56197 22.2485 5.74989C24.4364 7.93782 25.6654 10.9055 25.6654 13.9997Z" fill="#AEB8D6"/>
</svg>
