<svg width="176" height="44" viewBox="0 0 176 44" fill="none" xmlns="http://www.w3.org/2000/svg">
<rect x="0.5" y="0.5" width="43" height="43" rx="21.5" stroke="#223D8C"/>
<path d="M18.6406 21.9972C18.6406 22.1068 18.6604 22.208 18.7 22.3008C18.744 22.3935 18.8101 22.4821 18.8981 22.5664L24.0404 27.3854C24.19 27.5287 24.3704 27.6004 24.5817 27.6004C24.7269 27.6004 24.8567 27.5667 24.9712 27.4992C25.09 27.436 25.1846 27.3474 25.255 27.2336C25.3254 27.124 25.3606 27.0017 25.3606 26.8668C25.3606 26.6644 25.2792 26.4852 25.1164 26.3292L20.4824 21.9972L25.1164 17.6652C25.2792 17.5092 25.3606 17.3321 25.3606 17.134C25.3606 16.9949 25.3254 16.8705 25.255 16.7609C25.1846 16.6512 25.09 16.5648 24.9712 16.5016C24.8567 16.4341 24.7269 16.4004 24.5817 16.4004C24.3704 16.4004 24.19 16.47 24.0404 16.6091L18.8981 21.4281C18.8101 21.5124 18.744 21.6009 18.7 21.6937C18.6604 21.7864 18.6406 21.8876 18.6406 21.9972Z" fill="#223D8C"/>
</svg>
